<svg width="24" height="24" viewBox="0 0 24 24" fill="none" xmlns="http://www.w3.org/2000/svg">
<circle cx="12" cy="12" r="12" fill="#1E5EFF"/>
<mask id="mask0_556_8908" style="mask-type:alpha" maskUnits="userSpaceOnUse" x="0" y="0" width="24" height="24">
<circle cx="12" cy="12" r="12" fill="#1E5EFF"/>
</mask>
<g mask="url(#mask0_556_8908)">
<path d="M14.8607 15.5363C14.6014 15.7424 14.3274 15.9313 14.0228 16.0882C13.4816 16.3662 12.9163 16.5949 12.3365 16.7811C11.3842 17.0857 10.3043 17.3344 9.29749 17.1628C9.3959 16.7226 9.47038 16.2784 9.52092 15.8342C9.58742 15.249 9.61269 14.6598 9.59806 14.0693C9.66589 14.0574 9.73238 14.0454 9.80021 14.0334C9.80021 14.0388 9.80021 14.0454 9.80021 14.0507C9.9638 14.0188 10.1261 13.9802 10.2856 13.9363C11.3775 13.6943 12.4163 13.3046 13.3565 12.6982C13.3725 13.032 13.4337 13.3578 13.5321 13.669C13.7688 14.4072 14.229 15.0615 14.8567 15.5363H14.8607Z" fill="#FAC2B0"/>
<path d="M14.539 30.4519C14.5563 30.3735 14.5722 30.2937 14.5895 30.2152C14.3022 25.3276 14.8502 20.4147 16.2094 15.7093C16.2147 15.6933 16.2134 15.6734 16.2094 15.6561C16.095 15.6308 15.9806 15.6069 15.8649 15.5829C15.3955 15.4872 14.8874 15.3927 14.4538 15.1786C14.4272 15.2065 14.4139 15.2451 14.4259 15.2784C13.0414 16.3477 11.2486 16.7865 9.53165 16.494C9.37471 16.6097 9.03557 16.8491 8.64057 17.1244C7.76945 21.5385 7.33588 26.0298 7.34386 30.5304C9.70454 31.0358 12.1703 30.9267 14.5416 30.4519H14.539Z" fill="#F8DDC7"/>
<path d="M8.71366 17.3972C8.70036 17.3719 8.68972 17.3467 8.6844 17.3201C8.66844 17.2522 8.65913 17.1844 8.64982 17.1166C8.64583 17.1192 8.64317 17.1219 8.63918 17.1246C8.00346 17.5674 7.22011 18.1061 6.81048 18.3707C6.45804 18.6008 6.09629 18.8149 5.73587 19.0291C5.31959 19.2937 4.90331 19.5571 4.48703 19.8217C4.104 20.1183 3.81141 20.4574 3.61724 20.8923C3.61192 20.9123 3.60793 20.9322 3.60261 20.9522C3.44966 21.6398 3.46562 22.3806 3.41641 23.0815C3.30469 24.7107 3.19165 26.3385 3.07993 27.9678C2.85517 31.2248 2.6304 34.4819 2.40697 37.739C2.28195 39.5478 2.15694 41.3565 2.03192 43.1653C2.01862 43.1732 2.00798 43.1852 2 43.1985C2.24338 43.3076 2.49475 43.4007 2.7634 43.4632C3.08525 43.535 3.41242 43.5789 3.73959 43.6241C4.22636 43.6294 4.71313 43.5736 5.19058 43.4552C5.19723 43.5177 5.20255 43.5789 5.21053 43.6427C5.2757 43.6706 5.34486 43.6946 5.41535 43.7159C5.41668 43.7066 5.41801 43.6959 5.41668 43.6839C5.41668 43.6773 5.41535 43.6706 5.41402 43.6627C5.78375 43.7331 6.15348 43.7518 6.52853 43.7172C6.65886 43.7278 6.7892 43.7371 6.91954 43.7478C6.96875 43.7398 7.01662 43.7305 7.06583 43.7225C7.08312 43.7026 7.09376 43.6773 7.09509 43.6534C7.25469 39.3403 7.46748 35.0312 7.73746 30.7248C7.78667 29.9255 7.83854 29.1262 7.89307 28.3268C7.89706 28.3149 7.89839 28.3016 7.89573 28.2869C7.9875 26.9304 8.08326 25.5738 8.18433 24.2186C8.32132 22.4005 8.46894 20.5838 8.62588 18.7671C8.62854 18.7391 8.62056 18.7165 8.60593 18.7006C8.64184 18.267 8.67775 17.8334 8.71366 17.3985V17.3972Z" fill="#FFCB73"/>
<path d="M21.7965 33.0935C21.6795 36.4769 21.5133 39.8577 21.3018 43.2371C21.2885 43.3209 21.2765 43.4047 21.2632 43.4885C21.0784 43.523 20.8922 43.5563 20.7086 43.5922C19.6194 43.6614 18.5341 43.5656 17.4688 43.3076C17.4383 43.3009 17.4183 43.2837 17.4077 43.261C16.2719 43.4592 15.1201 43.4778 13.9684 43.4326C13.0959 43.398 11.9162 43.5111 11.1781 42.9432C11.1661 42.8727 11.1528 42.8022 11.1395 42.7317C11.1422 42.7317 11.1449 42.7291 11.1489 42.7277C11.1382 42.7118 11.1302 42.6932 11.1289 42.6705C10.9972 38.7764 11.0518 34.8809 11.2898 30.9935C11.4414 28.5304 11.6662 26.0699 11.9655 23.6188C11.9827 23.4765 12.0014 23.3329 12.0187 23.1906C12.0253 23.1427 12.0572 23.1134 12.0931 23.1015C12.3817 22.1425 12.6876 21.1916 13.0095 20.2447C13.0095 20.238 13.0121 20.2287 13.0161 20.2207C13.0214 20.2061 13.0268 20.1915 13.0321 20.1769C13.2116 19.6502 13.3992 19.1262 13.588 18.6022C13.6625 18.2883 13.7476 17.9784 13.8434 17.6712C14.0947 16.8506 14.4152 16.0553 14.8023 15.2866C14.8182 15.2892 14.8355 15.2919 14.8528 15.2932C14.8555 15.2946 14.8595 15.2959 14.8634 15.2972C14.9073 15.3158 14.9512 15.3331 14.9951 15.3491V15.3518C15.027 15.3571 15.0563 15.3757 15.0696 15.4036C15.2385 15.4502 15.4101 15.4887 15.5803 15.5246C15.6362 15.5379 15.6907 15.5512 15.7465 15.5632C15.7705 15.5685 15.7931 15.5712 15.8157 15.5725C15.8317 15.5752 15.8476 15.5792 15.8623 15.5818C15.978 15.6058 16.0923 15.6297 16.2067 15.655C16.4581 15.7095 16.7081 15.7667 16.9581 15.8279C18.3892 16.175 19.791 16.6285 21.1582 17.1805C21.234 17.227 22.5001 17.6712 22.5001 18.0005C22.6225 18.4247 22.4017 18.5695 22.5001 19.0005C22.7089 20.3397 21.9801 21.2967 21.9934 22.6533C22.0266 26.1311 21.9149 29.6169 21.7952 33.0935H21.7965Z" fill="#FFCB73"/>
<path d="M18.7735 23.0336C18.7682 22.9046 18.566 22.9033 18.5713 23.0336C18.8333 29.7871 18.4716 36.558 17.4834 43.2451C17.4648 43.3727 17.659 43.4273 17.6776 43.2982C18.4477 38.0861 18.8466 32.8208 18.8573 27.5515C18.8599 26.0446 18.8307 24.5391 18.7722 23.0336H18.7735Z" fill="#F5BB5B"/>
<path d="M14.4525 15.1786C14.4338 15.1693 14.4152 15.1586 14.3979 15.1493C13.7103 15.8781 12.8924 16.4035 11.8723 16.5923C11.1382 16.728 10.1899 16.8756 9.48372 16.5285C9.31481 16.6509 9.00892 16.8663 8.65515 17.1137C8.66047 17.1243 8.66579 17.135 8.6751 17.1456C8.72298 17.2028 8.77219 17.2573 8.82406 17.3092C9.69385 18.1936 11.0611 18.284 12.1822 17.8106C13.2382 17.365 14.0269 16.5391 14.7224 15.652C14.7969 15.559 14.8701 15.4632 14.9419 15.3674C14.773 15.3169 14.6081 15.2557 14.4538 15.1786H14.4525Z" fill="#FBDFCA"/>
<path d="M17.5194 15.946C16.615 15.7173 15.7106 15.4885 14.8062 15.2611C14.7092 15.2372 14.6546 15.3462 14.6932 15.4127C13.6638 18.0514 12.7501 20.7326 11.9561 23.4497C11.9415 23.4976 11.9628 23.5361 11.9947 23.5561C12.0226 23.6133 12.0984 23.6465 12.153 23.5853C13.3526 22.2141 14.5522 20.8443 15.7518 19.4731C15.805 19.4132 15.7798 19.3321 15.708 19.3042C15.4526 19.2071 15.1959 19.11 14.9406 19.0129C15.8157 18.0474 16.6908 17.0805 17.5659 16.1149C17.6151 16.0604 17.5978 15.966 17.522 15.946H17.5194ZM14.7158 18.9597C14.6759 19.0036 14.6839 19.0568 14.7131 19.094C14.7211 19.1246 14.7411 19.1539 14.7783 19.1672C15.0217 19.2603 15.2651 19.3521 15.5098 19.4452C14.4232 20.686 13.338 21.9269 12.2514 23.1691C13.0201 20.573 13.8965 18.0115 14.8807 15.4885C15.6893 15.6933 16.498 15.8968 17.3066 16.1016C16.4434 17.0552 15.5803 18.0075 14.7171 18.9611L14.7158 18.9597Z" fill="#F5BB5B"/>
<path d="M8.69763 17.0382C8.6697 17.0116 8.6298 17.0036 8.58857 17.0342C7.85576 17.5728 7.12295 18.1128 6.39014 18.6514C6.33029 18.6953 6.33827 18.7724 6.37684 18.815C6.708 19.5239 7.03916 20.2327 7.37166 20.9429C6.97533 21.3207 6.59629 21.717 6.23853 22.1319C6.22257 22.1506 6.21459 22.1705 6.21326 22.1904C6.21326 22.1931 6.21326 22.1958 6.21326 22.1971C6.21326 22.2157 6.21725 22.233 6.22656 22.249C6.7612 23.6374 7.29585 25.0246 7.83049 26.4131C7.86773 26.5088 7.9994 26.4942 8.02733 26.4237C8.05659 26.4091 8.07787 26.3812 8.08186 26.3399C8.30928 23.2704 8.53537 20.2022 8.7628 17.1326C8.76679 17.0821 8.73753 17.0515 8.70029 17.0408L8.69763 17.0382ZM7.89965 26.0354C7.40889 24.7626 6.91947 23.4898 6.42871 22.217C6.8011 21.7901 7.19344 21.3818 7.60573 20.9948C7.67755 20.9283 7.61371 20.8312 7.5379 20.8246C7.21738 20.1383 6.89553 19.4507 6.57501 18.7645C7.23201 18.2817 7.88768 17.7989 8.54468 17.3161C8.32923 20.2234 8.11511 23.1294 7.89965 26.0367V26.0354Z" fill="#F5BB5B"/>
<path d="M14.088 16.1521C12.7221 17.3264 10.7897 17.6656 9.10198 17.0458C8.97962 17.0006 8.92775 17.1961 9.04878 17.24C10.807 17.8864 12.8126 17.5126 14.2303 16.2944C14.3287 16.2093 14.1851 16.067 14.088 16.1521Z" fill="#E5C6B2"/>
<g opacity="0.6" style="mix-blend-mode:multiply">
<path d="M13.3605 12.6982C12.4189 13.3046 11.3802 13.6943 10.2896 13.9363C10.1287 13.9802 9.96645 14.0175 9.80419 14.0507C9.80419 14.0454 9.80419 14.0388 9.80419 14.0334C9.7377 14.0454 9.66987 14.0574 9.60204 14.0693C9.61667 14.6598 9.5914 15.249 9.5249 15.8342C9.52889 15.8342 9.53288 15.8342 9.53687 15.8329C9.53687 15.8329 9.53687 15.8355 9.53687 15.8369C9.60869 15.8302 9.67918 15.8262 9.74302 15.8236C9.74169 15.8182 9.74036 15.8143 9.73903 15.8089C10.7884 15.6826 11.8683 15.4991 12.6915 14.7849C13.0506 14.4737 13.3352 14.092 13.5374 13.6704C13.4377 13.3591 13.3778 13.032 13.3618 12.6995L13.3605 12.6982Z" fill="#FAC1A3"/>
</g>
<path d="M19.4411 14.2904C19.0368 13.6959 18.3053 13.4259 17.8345 12.8913C17.3544 12.346 17.1084 11.6424 16.9381 10.9469C16.5857 9.5012 16.4115 8.06883 15.7984 6.69365C15.2039 5.35703 14.2835 3.69724 12.8352 3.14131C11.8803 2.77424 10.6022 3.132 10.2258 4.10155C9.58211 3.73049 8.77615 3.86481 8.18831 4.3303C7.4289 4.93277 7.04853 5.92094 6.83839 6.83861C6.36892 8.89341 6.73199 11.2302 5.5869 13.0921C5.15067 13.8023 4.27156 14.6136 4.63198 15.5326C4.82882 16.0327 5.44858 16.4676 5.08151 17.0354C4.87005 17.3613 4.50032 17.5501 4.46175 17.9744C4.38062 18.8735 5.48582 19.2312 6.18804 19.2153C6.8078 19.2006 7.36639 19.1341 7.97684 19.2964C8.32529 19.3882 8.73891 19.5225 9.08736 19.3616C9.28154 19.2711 9.39192 19.1155 9.4797 18.9253C9.52758 18.8242 9.55019 18.7006 9.61403 18.6075C9.69649 18.4864 9.78293 18.4213 9.87869 18.388C10.3282 18.5157 10.803 18.4771 11.2087 18.279C11.3988 18.1766 11.5757 18.0542 11.73 17.9052C11.8337 17.8055 11.9162 17.6924 11.9814 17.5714C12.0319 17.4717 12.0718 17.3679 12.0984 17.2615C12.109 17.2296 12.117 17.1977 12.1263 17.1658C12.1888 16.8559 12.1582 16.5247 12.0465 16.2188C11.7007 15.2772 10.6674 14.7173 9.89864 14.1641C9.47837 13.8608 9.05411 13.5456 8.71098 13.1533C8.29204 12.6745 8.02738 12.0893 7.84916 11.4815C7.49672 10.2739 7.40629 8.74445 8.01142 7.59935C8.35721 6.94368 9.15785 6.05393 9.82017 6.52208C9.82017 6.50745 9.81485 6.49415 9.80554 6.48085C10.271 5.99408 11.1674 6.33323 11.6888 6.5806C12.1157 6.78408 12.5067 7.05939 12.8418 7.39321C12.9842 7.56344 13.1105 7.74698 13.2169 7.94115C14.0561 9.48524 13.7063 11.177 13.306 12.7836C13.1424 13.4432 13.0613 14.1109 13.3486 14.7492C13.5015 15.091 13.7303 15.4022 13.8473 15.7613C14.0002 16.2295 13.7861 16.5367 13.6146 16.953C13.4576 17.332 13.4962 17.7643 13.9191 17.9305C14.4285 18.1313 14.9272 17.8308 15.3395 17.5634C15.7452 17.3001 16.1189 17.1059 16.5977 17.3334C16.8317 17.4437 17.0738 17.6153 17.3464 17.5887C17.8079 17.5435 17.917 17.0727 18.0566 16.7109C18.2176 16.2947 18.5008 16.1656 18.8985 16.0233C19.1326 15.9382 19.368 15.8411 19.5236 15.6363C19.8242 15.2387 19.7005 14.6694 19.4398 14.2864L19.4411 14.2904Z" fill="#3E1310"/>
<path d="M15.156 9.21521C15.164 9.77646 14.8395 11.1955 14.0428 10.9242C13.8646 11.9283 13.4683 12.8793 12.8578 13.6998C12.3737 14.3502 11.718 15.0391 10.8296 14.8955C9.94119 14.7532 9.19907 13.9698 8.68172 13.2862C8.35056 12.8487 8.08456 12.3686 7.88241 11.8632C7.86246 11.8525 7.84517 11.8339 7.83586 11.806C7.77202 11.6038 7.71084 11.3977 7.65498 11.1902C7.63903 11.1317 7.62307 11.0745 7.60844 11.016C7.3451 9.98526 7.2161 8.90533 7.5047 7.87062C7.77069 6.9157 8.39843 6.01266 9.32675 5.60835C10.3415 5.1668 11.5558 5.41018 12.4229 6.06586C13.2807 6.71488 13.7861 7.70703 14.0042 8.74307C14.1412 8.50368 14.354 8.30818 14.6572 8.36802C15.0469 8.44516 15.152 8.8774 15.156 9.21521Z" fill="#FAC2B0"/>
<path d="M14.7345 9.27353C14.5097 9.37727 14.3248 9.54484 14.1932 9.75365C14.124 9.86403 14.2982 9.96511 14.3674 9.85605C14.3927 9.81483 14.4219 9.77759 14.4525 9.74168C14.5217 9.88132 14.5895 10.0196 14.6587 10.1593C14.7159 10.2763 14.8901 10.1739 14.8329 10.0569L14.6055 9.59405C14.676 9.53686 14.7531 9.48765 14.8382 9.44775C14.9552 9.39323 14.8528 9.219 14.7358 9.27353H14.7345Z" fill="#F6B193"/>
<path d="M13.9723 5.75717C12.9203 4.67325 11.0278 4.22106 9.8787 5.40473C9.18179 5.06825 8.4184 5.51911 7.95424 6.10828C7.31718 6.91557 7.04454 7.9423 6.96607 8.95307C6.81978 10.8443 7.14163 13.5414 9.31479 14.1373C9.3507 14.1466 9.38129 14.1373 9.40257 14.1187C9.40257 14.1187 9.40257 14.1187 9.4039 14.1187C9.21105 13.9098 9.01954 13.701 8.84664 13.475C8.51947 13.0467 8.26013 12.5639 8.05132 12.0678C7.79863 11.4694 7.67761 10.8789 7.72149 10.2897C7.70952 10.1913 7.70154 10.0915 7.69622 9.99044C7.65633 9.25497 7.77336 8.5062 8.07792 7.83191C8.38116 7.16161 9.00092 6.24926 9.85077 6.57643C10.2631 6.20404 10.948 6.22931 11.5092 6.53254C11.5199 6.53786 11.5305 6.54584 11.5412 6.55116C12.2234 6.81715 12.8179 7.35978 13.1903 7.98752C13.3845 8.31336 13.5215 8.65782 13.6106 9.01425C13.6092 9.01824 13.6079 9.0209 13.6053 9.02356C13.6239 9.09405 13.6385 9.16587 13.6505 9.23768C13.6864 9.24433 13.725 9.23236 13.7462 9.18848C13.8367 9.00228 13.951 8.83604 14.1013 8.69373C14.2343 8.56738 14.5548 8.2974 14.773 8.38119C14.8062 8.17504 14.8355 7.9689 14.8634 7.76275C14.8009 7.03792 14.5482 6.349 13.971 5.75451L13.9723 5.75717Z" fill="#3E1310"/>
</g>
</svg>
